<svg width="64" height="64" viewBox="0 0 64 64" fill="none" xmlns="http://www.w3.org/2000/svg">
<path d="M32 6.42847C23.1616 6.42847 16 13.5613 16 22.3965C16 37.6733 32 57.5965 32 57.5965C32 57.5965 48 37.6701 48 22.3965C48 13.5645 40.8384 6.42847 32 6.42847ZM32 31.2317C29.7085 31.2317 27.5109 30.3214 25.8906 28.7011C24.2703 27.0808 23.36 24.8831 23.36 22.5917C23.36 20.3002 24.2703 18.1026 25.8906 16.4823C27.5109 14.862 29.7085 13.9517 32 13.9517C34.2915 13.9517 36.4891 14.862 38.1094 16.4823C39.7297 18.1026 40.64 20.3002 40.64 22.5917C40.64 24.8831 39.7297 27.0808 38.1094 28.7011C36.4891 30.3214 34.2915 31.2317 32 31.2317Z" fill="white"/>
</svg>
