<svg width="48" height="48" viewBox="0 0 48 48" fill="none" xmlns="http://www.w3.org/2000/svg">
<g clip-path="url(#clip0_1_76)">
<path d="M13.0909 22.9093C13.0909 22.3063 12.603 21.8184 12 21.8184C11.397 21.8184 10.909 22.3063 10.909 22.9093C10.909 25.774 14.0688 29.7073 14.4289 30.1472C14.6452 30.4094 14.9584 30.5457 15.2737 30.5457C15.5166 30.5457 15.7617 30.4647 15.9651 30.2985C16.4306 29.916 16.4977 29.2289 16.1163 28.7623C14.9467 27.3369 13.0909 24.4881 13.0909 22.9093Z" fill="white"/>
<path d="M36 21.8184C35.397 21.8184 34.9091 22.3063 34.9091 22.9093C34.9091 24.4828 33.0532 27.3347 31.8835 28.7634C31.5022 29.2289 31.5703 29.9161 32.0359 30.2985C32.2383 30.4647 32.4834 30.5457 32.7273 30.5457C33.0426 30.5457 33.3547 30.4094 33.571 30.1472C33.9311 29.7073 37.091 25.7741 37.091 22.9093C37.091 22.3063 36.603 21.8184 36 21.8184Z" fill="white"/>
<path d="M24 21.8184C23.397 21.8184 22.9091 22.3063 22.9091 22.9093V29.4548C22.9091 30.0578 23.397 30.5457 24 30.5457C24.603 30.5457 25.091 30.0578 25.091 29.4548V22.9093C25.0909 22.3063 24.6029 21.8184 24 21.8184Z" fill="white"/>
<path d="M36 4.36367C35.3389 4.36367 34.6481 4.45112 33.9306 4.58438C31.5279 1.78354 27.9712 0 24.0001 0C20.0289 0 16.4721 1.78354 14.0695 4.58428C13.3519 4.45112 12.6611 4.36357 12.0001 4.36357C5.38313 4.36367 0 9.7468 0 16.3636C0 20.8977 2.55682 25.0195 6.57103 27.0575L6.54975 43.5437C6.54873 44.7336 7.01101 45.8523 7.85159 46.6939C8.69319 47.5366 9.81072 48 11.0008 48H37.0036C39.4582 48 41.4546 46.0035 41.4546 43.549V27.0415C45.4539 24.9982 48.0001 20.8828 48.0001 16.3636C48 9.7468 42.6169 4.36367 36 4.36367ZM39.2728 43.5491C39.2728 44.7998 38.2543 45.8183 37.0035 45.8183H11.0007C10.3945 45.8183 9.82453 45.5818 9.39519 45.1525C8.96687 44.7232 8.73042 44.1532 8.73144 43.546L8.73717 39.2728H39.2728V43.5491ZM39.9482 25.3434C39.8906 25.3668 39.8363 25.3945 39.7851 25.4276C39.6477 25.5128 39.5348 25.6258 39.4506 25.7557C39.3654 25.8845 39.3078 26.0337 39.2844 26.1935C39.2748 26.2542 39.2716 26.315 39.2727 26.3768V37.0909H8.73993L8.75394 26.3916C8.75496 26.332 8.75179 26.2712 8.7433 26.2126C8.71988 26.0475 8.65913 25.894 8.57067 25.7609C8.48752 25.6362 8.3789 25.5276 8.24677 25.4445C8.19246 25.4104 8.13488 25.3805 8.07526 25.356C4.49469 23.7902 2.18179 20.2638 2.18179 16.3636C2.18179 10.9495 6.58596 6.54546 12 6.54546C12.2116 6.54546 12.4349 6.57103 12.6541 6.58831C11.5504 8.50654 10.909 10.7232 10.909 13.0909C10.909 13.6939 11.397 14.1819 12 14.1819C12.603 14.1819 13.0909 13.6939 13.0909 13.0909C13.0909 7.07595 17.9851 2.18179 24.0001 2.18179C30.015 2.18179 34.9091 7.07595 34.9091 13.0909C34.9091 13.6939 35.397 14.1819 36 14.1819C36.603 14.1819 37.091 13.6939 37.091 13.0909C37.091 10.7232 36.4496 8.50664 35.3459 6.58831C35.5651 6.57103 35.7884 6.54546 36 6.54546C41.4141 6.54546 45.8182 10.9496 45.8182 16.3636C45.8182 20.25 43.5149 23.772 39.9482 25.3434Z" fill="white"/>
</g>
<defs>
<clipPath id="clip0_1_76">
<rect width="48" height="48" fill="white"/>
</clipPath>
</defs>
</svg>
