<svg width="48" height="48" viewBox="0 0 48 48" fill="none" xmlns="http://www.w3.org/2000/svg">
<g clip-path="url(#clip0_1_51)">
<path d="M47.2477 12C47.2477 11.862 47.2118 11.724 47.136 11.6025L43.5 5.78475V1.5C43.5 1.08525 43.164 0.75 42.75 0.75H26.25C25.836 0.75 25.5 1.08525 25.5 1.5V5.718L20.436 11.5065C20.3137 11.6453 20.2575 11.8215 20.2575 12H20.25V17.3663C19.7565 17.2957 19.257 17.25 18.75 17.25C15.2115 17.25 11.9265 19.008 9.96375 21.9525L8.9955 23.4053C5.77725 24.0623 0.75 25.5592 0.75 28.5C0.75 33.8385 3.426 38.5568 7.5 41.4067V42C7.5 44.9925 12.3368 47.25 18.75 47.25H39C39.1418 47.25 39.2663 47.2005 39.3795 47.1322L39.3862 47.1435L42.75 45.1245L46.1138 47.1427C46.233 47.214 46.3665 47.25 46.5 47.25C46.6275 47.25 46.755 47.2178 46.8698 47.1525C47.1045 47.019 47.25 46.77 47.25 46.5V12H47.2477ZM45.147 11.25H40.353L42.75 7.41525L45.147 11.25ZM42 43.8255L39.75 45.1755V12.75H42V43.8255ZM27 2.25H42V5.25H27V2.25ZM11.2118 22.7843C12.8963 20.2582 15.714 18.75 18.75 18.75C21.786 18.75 24.6037 20.2582 26.2882 22.7843L31.8397 31.1115C29.001 32.1712 24.4995 33 18.75 33C13.0005 33 8.499 32.1712 5.66025 31.1115L11.2118 22.7843ZM33.234 30.4988L29.715 25.2195C33.5228 26.1997 35.25 27.5235 35.25 28.5C35.25 29.1255 34.5397 29.8328 33.234 30.4988ZM35.25 25.968C33.507 24.6322 30.6082 23.8342 28.5045 23.4045L27.5363 21.9525C26.7833 20.8223 25.8323 19.872 24.75 19.1235V18.75H35.25V25.968ZM7.785 25.2202L4.266 30.4988C2.96025 29.8328 2.25 29.1255 2.25 28.5C2.25 27.5228 3.97875 26.1997 7.785 25.2202ZM2.5155 31.206C5.616 33.36 12.3293 34.5 18.75 34.5C25.1707 34.5 31.884 33.36 34.9845 31.206C33.7163 37.773 27.9315 42.75 21 42.75H16.5C9.5685 42.75 3.78375 37.7723 2.5155 31.206ZM9.06375 42.378C11.2808 43.5705 13.812 44.25 16.5 44.25H21C23.688 44.25 26.2192 43.5705 28.4363 42.378C27.921 44.043 24.0907 45.75 18.75 45.75C13.4093 45.75 9.579 44.043 9.06375 42.378ZM38.25 45.75H26.7735C28.788 44.8117 30 43.4977 30 42V41.4067C34.074 38.5568 36.75 33.8385 36.75 28.5V18C36.75 17.5853 36.414 17.25 36 17.25H24C23.586 17.25 23.25 17.5853 23.25 18V18.2745C22.7655 18.0457 22.266 17.8538 21.75 17.7008V12.75H38.25V45.75ZM22.653 11.25L26.5905 6.75H41.397L38.5845 11.25H22.653ZM43.5 43.8255V12.75H45.75V45.1748L43.5 43.8255Z" fill="white"/>
<path d="M21 21.75H22.5V23.25H21V21.75Z" fill="white"/>
<path d="M13.5 24H15V25.5H13.5V24Z" fill="white"/>
<path d="M18 28.5H19.5V30H18V28.5Z" fill="white"/>
<path d="M24.75 27H26.25V28.5H24.75V27Z" fill="white"/>
<path d="M9.75 28.5H11.25V30H9.75V28.5Z" fill="white"/>
</g>
<defs>
<clipPath id="clip0_1_51">
<rect width="48" height="48" fill="white"/>
</clipPath>
</defs>
</svg>
