<svg width="172" height="50" viewBox="0 0 172 50" fill="none" xmlns="http://www.w3.org/2000/svg">
<path d="M70.804 26.5259H72.3465C73.8582 26.5259 74.9741 26.2694 75.6939 25.7568C76.4138 25.2441 76.7738 24.4384 76.7738 23.3398C76.7738 22.2516 76.4035 21.4773 75.6632 21.0169C74.9329 20.5566 73.7966 20.3264 72.2541 20.3264H70.804V26.5259ZM70.804 30.4809V39.2857H66.022V16.34H72.5933C75.6579 16.34 77.9255 16.9102 79.3961 18.0507C80.8667 19.1807 81.6019 20.9019 81.6019 23.2143C81.6019 24.5641 81.2368 25.7673 80.5067 26.8241C79.7766 27.8703 78.743 28.6918 77.4062 29.2882C80.7998 34.4464 83.0109 37.7789 84.0392 39.2857H78.7328L73.3492 30.4809H70.804ZM102.709 39.2857H89.7208V16.34H102.709V20.3264H94.5028V25.3644H102.139V29.3509H94.5028V35.2678H102.709V39.2857ZM123.585 32.9136C123.585 34.9853 122.85 36.6177 121.379 37.8103C119.919 39.0032 117.883 39.5996 115.271 39.5996C112.864 39.5996 110.736 39.1393 108.884 38.2184V33.6984C110.406 34.3889 111.692 34.8755 112.741 35.158C113.8 35.4405 114.767 35.5818 115.641 35.5818C116.69 35.5818 117.492 35.3777 118.047 34.9696C118.613 34.5616 118.896 33.9546 118.896 33.1491C118.896 32.6991 118.772 32.3016 118.526 31.9562C118.279 31.6005 117.914 31.2605 117.43 30.9361C116.957 30.6118 115.985 30.0937 114.515 29.3823C113.137 28.7232 112.103 28.0902 111.414 27.4832C110.725 26.8764 110.175 26.1702 109.764 25.3644C109.352 24.5587 109.147 23.6171 109.147 22.5394C109.147 20.5096 109.82 18.9139 111.167 17.7525C112.525 16.5911 114.397 16.0104 116.782 16.0104C117.955 16.0104 119.071 16.1516 120.13 16.4341C121.199 16.7166 122.315 17.1142 123.477 17.6269L121.935 21.4094C120.731 20.9071 119.734 20.5566 118.942 20.3578C118.161 20.1591 117.389 20.0596 116.628 20.0596C115.723 20.0596 115.029 20.2741 114.546 20.7032C114.062 21.1321 113.821 21.6919 113.821 22.3825C113.821 22.8114 113.918 23.1882 114.114 23.5125C114.309 23.8264 114.618 24.135 115.039 24.4384C115.471 24.7314 116.484 25.265 118.078 26.0393C120.186 27.0646 121.631 28.0953 122.413 29.1312C123.194 30.1566 123.585 31.4175 123.585 32.9136ZM139.216 39.2857H134.434V20.3893H128.31V16.34H145.34V20.3893H139.216V39.2857ZM165.46 39.2857L163.825 33.8239H155.603L153.968 39.2857H148.816L156.776 16.2458H162.622L170.613 39.2857H165.46ZM162.684 29.7432C161.172 24.7943 160.319 21.9953 160.123 21.3466C159.938 20.6978 159.804 20.1852 159.722 19.8086C159.383 21.1478 158.411 24.4594 156.807 29.7432H162.684Z" fill="white"/>
<path d="M46.3302 8.41873C45.9258 8.00719 45.4456 7.68089 44.9171 7.45848C44.3887 7.23607 43.8223 7.12194 43.2503 7.12264C42.8103 7.12264 42.3696 7.18982 41.9464 7.32498C42.2369 6.37778 42.2069 5.35891 41.8613 4.43107C41.5159 3.50323 40.8748 2.71993 40.0404 2.20627C39.2062 1.6926 38.2267 1.47819 37.2586 1.59728C36.2905 1.71637 35.3894 2.16209 34.6995 2.86327C32.263 5.34216 34.0606 8.41952 33.8733 9.97732C33.8094 10.5078 33.0347 11.5672 32.1079 12.6695C29.0219 9.91561 25.9643 7.93669 24.4739 8.30466C23.627 8.51403 21.4447 10.3101 18.9423 12.6609L38.7637 28.3563C39.9969 26.8688 40.8416 25.6757 40.979 25.0984C41.3483 23.5491 39.3134 20.3343 36.5155 17.1265C37.5973 16.2383 38.6539 15.5336 39.2889 15.5336L39.3366 15.5351C39.4156 15.525 39.497 15.5211 39.583 15.5211C40.483 15.5211 41.7806 16.0078 43.1566 16.0078C44.217 16.0078 45.3236 15.7187 46.3302 14.6945C46.7352 14.2824 47.0564 13.7932 47.2756 13.2548C47.4948 12.7164 47.6077 12.1394 47.6077 11.5566C47.6077 10.9739 47.4948 10.3968 47.2756 9.85839C47.0564 9.32 46.7352 8.83078 46.3302 8.41873ZM23.7015 10.682L24.4693 9.90077L25.2372 10.682L24.47 11.4633L23.7015 10.682ZM25.3969 15.6601L24.629 14.8789L25.3969 14.0969L26.1647 14.8781L25.3969 15.6601ZM26.3889 13.0258L25.2372 11.8539L26.3889 10.682L27.5407 11.8539L26.3889 13.0258ZM28.8837 16.2578L28.1159 15.4765L28.8837 14.6953L29.6516 15.4765L28.8837 16.2578ZM45.2445 13.5906C44.6632 14.182 44.0189 14.4461 43.1566 14.4461C42.5462 14.4461 41.9119 14.3179 41.2985 14.1937C40.701 14.0734 40.1359 13.9594 39.583 13.9594C39.4747 13.9594 39.3726 13.9633 39.2729 13.9726C38.2516 13.982 36.8817 14.8101 35.4634 15.9633C34.7488 15.1951 34.0116 14.4489 33.2529 13.7258C34.5773 12.132 35.306 10.9344 35.3982 10.1679C35.4828 9.46716 35.3422 8.74528 35.1925 7.98123C34.8569 6.26248 34.7179 5.05466 35.7852 3.96794C36.0472 3.70005 36.3589 3.48762 36.702 3.34294C37.0453 3.19827 37.4132 3.12418 37.7847 3.12498C38.1559 3.12425 38.5236 3.19837 38.8666 3.34307C39.2095 3.48775 39.5209 3.70014 39.7828 3.96794C40.5274 4.72577 40.7939 5.83435 40.4799 6.86014C40.3965 7.13237 40.3877 7.42264 40.455 7.69952C40.522 7.97639 40.6624 8.22928 40.8607 8.4308C41.0591 8.63232 41.3078 8.77478 41.58 8.84275C41.8522 8.91073 42.1374 8.90161 42.4049 8.81639C42.6788 8.72941 42.9641 8.68516 43.251 8.68514C44.0043 8.68514 44.7123 8.98357 45.2452 9.52341C45.7736 10.0637 46.0701 10.795 46.0699 11.5572C46.0697 12.3194 45.7729 13.0505 45.2445 13.5906Z" fill="white"/>
<path d="M8.16378 24.9002C7.80135 26.4173 9.74634 29.5291 12.453 32.6689C11.3696 33.611 10.3284 34.3994 9.80699 34.4643C9.72496 34.4744 9.64238 34.4794 9.55975 34.4791C8.65982 34.4791 7.36213 33.9923 5.98691 33.9923C4.92649 33.9923 3.82078 34.2814 2.81412 35.3057C2.12396 36.0071 1.68501 36.9239 1.56747 37.9093C1.44993 38.8946 1.6606 39.8916 2.16577 40.7409C2.67096 41.59 3.44145 42.2421 4.354 42.5932C5.26654 42.9441 6.26843 42.9735 7.19935 42.6768C6.96157 43.4496 6.93617 44.2739 7.12595 45.0603C7.31571 45.8468 7.71338 46.5655 8.27589 47.1384C8.68053 47.5509 9.16124 47.878 9.69042 48.1009C10.2196 48.3239 10.7868 48.4382 11.3596 48.4377C11.9326 48.4382 12.5 48.3237 13.0295 48.1009C13.5589 47.8778 14.0399 47.5509 14.4448 47.1384C16.8813 44.658 15.0837 41.5798 15.2695 40.0221C15.2334 39.3821 15.9376 38.2807 16.8329 37.1525C19.9864 40.0002 23.1463 42.0696 24.6697 41.6939C25.3184 41.5337 26.7567 40.436 28.5197 38.8744L10.9358 20.9846C9.39926 22.7768 8.32042 24.2393 8.16378 24.9002ZM15.6918 36.0846C14.5731 37.511 13.7668 38.8923 13.7338 39.9369C13.6747 40.6048 13.8091 41.2923 13.9503 42.0182C14.2867 43.7377 14.4264 44.9471 13.3591 46.0337C13.0969 46.3012 12.7852 46.5134 12.442 46.6578C12.0988 46.8021 11.731 46.876 11.3596 46.8752C10.9163 46.8755 10.4791 46.7698 10.0835 46.5662C9.68787 46.3627 9.34498 46.0671 9.08256 45.7035C8.82015 45.34 8.64561 44.9187 8.5731 44.4737C8.50058 44.0287 8.53214 43.5727 8.66519 43.1423C8.74875 42.8703 8.75751 42.5803 8.69052 42.3035C8.62351 42.0269 8.48329 41.7741 8.28511 41.5728C8.08722 41.3709 7.83872 41.228 7.56662 41.1596C7.29451 41.0914 7.0092 41.1002 6.74171 41.1853C6.46723 41.2721 6.18141 41.316 5.89399 41.3157C5.5234 41.3168 5.15625 41.2432 4.81374 41.0991C4.47124 40.9552 4.16013 40.7435 3.89834 40.4768C3.36543 39.9321 3.07135 39.2103 3.07135 38.4432C3.07135 37.6759 3.36543 36.9541 3.89986 36.4096C4.48113 35.8182 5.12461 35.5541 5.98614 35.5541C6.59582 35.5541 7.23006 35.6821 7.84282 35.8057C8.44021 35.9259 9.00535 36.0409 9.55821 36.0409C9.70871 36.0409 9.85461 36.0314 9.99205 36.015C10.7453 35.9212 11.9224 35.1798 13.4889 33.8321C14.2005 34.6055 14.9352 35.3568 15.6918 36.0846ZM13.7814 26.0166L14.5493 26.7978L13.7814 27.5791L13.0136 26.7978L13.7814 26.0166ZM11.9893 25.7235L11.2214 26.5041L10.4535 25.7235L11.2214 24.9423L11.9893 25.7235Z" fill="white"/>
<path d="M11.5416 20.2827L29.6914 37.8107C32.5041 35.21 35.8243 31.7913 38.1394 29.0966L17.6891 13.8577C15.5537 15.9311 13.3161 18.2656 11.5416 20.2827ZM16.9074 19.9381L16.1396 19.1568L16.9074 18.3756L17.6753 19.1568L16.9074 19.9381ZM22.2824 23.5607L21.5146 24.342L20.7467 23.5607L21.5139 22.7795L22.2824 23.5607ZM19.5948 21.217L20.7467 22.389L19.5948 23.5607L18.4431 22.389L19.5948 21.217Z" fill="white"/>
</svg>
