<svg width="98" height="28" viewBox="0 0 98 28" fill="none" xmlns="http://www.w3.org/2000/svg">
<g clip-path="url(#clip0_1_33)">
<path d="M40.3418 14.8545H41.2207C42.082 14.8545 42.7178 14.7109 43.1279 14.4238C43.5381 14.1367 43.7432 13.6855 43.7432 13.0703C43.7432 12.4609 43.5322 12.0273 43.1104 11.7695C42.6943 11.5117 42.0469 11.3828 41.168 11.3828H40.3418V14.8545ZM40.3418 17.0693V22H37.6172V9.15039H41.3613C43.1074 9.15039 44.3994 9.46973 45.2373 10.1084C46.0752 10.7412 46.4941 11.7051 46.4941 13C46.4941 13.7559 46.2861 14.4297 45.8701 15.0215C45.4541 15.6074 44.8652 16.0674 44.1035 16.4014C46.0371 19.29 47.2969 21.1562 47.8828 22H44.8594L41.792 17.0693H40.3418ZM58.5204 22H51.12V9.15039H58.5204V11.3828H53.8446V14.2041H58.1952V16.4365H53.8446V19.75H58.5204V22ZM70.4148 18.4316C70.4148 19.5918 69.9959 20.5059 69.158 21.1738C68.3259 21.8418 67.1658 22.1758 65.6775 22.1758C64.3064 22.1758 63.0935 21.918 62.0388 21.4023V18.8711C62.906 19.2578 63.6384 19.5303 64.2361 19.6885C64.8396 19.8467 65.3904 19.9258 65.8884 19.9258C66.4861 19.9258 66.9431 19.8115 67.2595 19.583C67.5818 19.3545 67.7429 19.0146 67.7429 18.5635C67.7429 18.3115 67.6726 18.0889 67.532 17.8955C67.3914 17.6963 67.1834 17.5059 66.908 17.3242C66.6384 17.1426 66.0847 16.8525 65.2468 16.4541C64.4617 16.085 63.8728 15.7305 63.4802 15.3906C63.0877 15.0508 62.7742 14.6553 62.5398 14.2041C62.3054 13.7529 62.1882 13.2256 62.1882 12.6221C62.1882 11.4854 62.572 10.5918 63.3396 9.94141C64.113 9.29102 65.1795 8.96582 66.5388 8.96582C67.2068 8.96582 67.8425 9.04492 68.4461 9.20312C69.0554 9.36133 69.6912 9.58398 70.3533 9.87109L69.4744 11.9893C68.7888 11.708 68.2205 11.5117 67.7693 11.4004C67.324 11.2891 66.8845 11.2334 66.4509 11.2334C65.9353 11.2334 65.5398 11.3535 65.2644 11.5938C64.989 11.834 64.8513 12.1475 64.8513 12.5342C64.8513 12.7744 64.907 12.9854 65.0183 13.167C65.1296 13.3428 65.3054 13.5156 65.5457 13.6855C65.7918 13.8496 66.3689 14.1484 67.2771 14.582C68.4783 15.1562 69.3015 15.7334 69.7468 16.3135C70.1921 16.8877 70.4148 17.5938 70.4148 18.4316ZM79.3209 22H76.5963V11.418H73.1071V9.15039H82.8102V11.418H79.3209V22ZM94.2739 22L93.3423 18.9414H88.6577L87.7261 22H84.7905L89.3257 9.09766H92.6568L97.2095 22H94.2739ZM92.6919 16.6562C91.8306 13.8848 91.3443 12.3174 91.2329 11.9541C91.1275 11.5908 91.0513 11.3037 91.0044 11.0928C90.8111 11.8428 90.2573 13.6973 89.3433 16.6562H92.6919Z" fill="white"/>
<path d="M26.3974 4.71445C26.167 4.48399 25.8934 4.30126 25.5923 4.17671C25.2912 4.05216 24.9685 3.98825 24.6426 3.98864C24.3919 3.98864 24.1408 4.02626 23.8997 4.10195C24.0652 3.57152 24.0481 3.00095 23.8512 2.48136C23.6544 1.96177 23.2891 1.52312 22.8137 1.23547C22.3384 0.947814 21.7803 0.827746 21.2287 0.894436C20.6771 0.961127 20.1637 1.21073 19.7706 1.60339C18.3824 2.99157 19.4066 4.71489 19.2999 5.58726C19.2635 5.88432 18.8221 6.47757 18.294 7.09489C16.5357 5.5527 14.7936 4.44451 13.9444 4.65057C13.4619 4.76782 12.2185 5.77364 10.7927 7.09007L22.0863 15.8795C22.7889 15.0465 23.2702 14.3784 23.3485 14.0551C23.5589 13.1875 22.3995 11.3872 20.8053 9.59082C21.4217 9.09339 22.0237 8.69876 22.3855 8.69876L22.4127 8.69964C22.4577 8.69395 22.5041 8.69176 22.5531 8.69176C23.0659 8.69176 23.8052 8.96432 24.5892 8.96432C25.1934 8.96432 25.8239 8.80245 26.3974 8.22889C26.6282 7.99813 26.8112 7.72418 26.9361 7.42267C27.061 7.12117 27.1253 6.79802 27.1253 6.47167C27.1253 6.14532 27.061 5.82217 26.9361 5.52066C26.8112 5.21916 26.6282 4.9452 26.3974 4.71445ZM13.5043 5.98189L13.9418 5.54439L14.3793 5.98189L13.9422 6.41939L13.5043 5.98189ZM14.4703 8.76964L14.0328 8.33214L14.4703 7.8942L14.9078 8.3317L14.4703 8.76964ZM15.0355 7.29439L14.3793 6.63814L15.0355 5.98189L15.6918 6.63814L15.0355 7.29439ZM16.457 9.10432L16.0195 8.66682L16.457 8.22932L16.8945 8.66682L16.457 9.10432ZM25.7788 7.6107C25.4476 7.94189 25.0805 8.08976 24.5892 8.08976C24.2414 8.08976 23.88 8.01801 23.5305 7.94845C23.1901 7.88107 22.8681 7.8172 22.5531 7.8172C22.4914 7.8172 22.4332 7.81939 22.3764 7.82464C21.7945 7.82989 21.014 8.29364 20.2059 8.93939C19.7987 8.5092 19.3787 8.09135 18.9464 7.68639C19.701 6.79389 20.1162 6.1232 20.1687 5.69401C20.2169 5.30157 20.1368 4.89732 20.0515 4.46945C19.8603 3.50695 19.7811 2.83057 20.3892 2.22201C20.5385 2.07199 20.7161 1.95303 20.9116 1.87201C21.1072 1.79099 21.3168 1.7495 21.5285 1.74995C21.74 1.74954 21.9495 1.79105 22.1449 1.87208C22.3403 1.9531 22.5177 2.07204 22.6669 2.22201C23.0912 2.64639 23.243 3.2672 23.0641 3.84164C23.0166 3.99409 23.0116 4.15664 23.0499 4.31169C23.0881 4.46674 23.1681 4.60836 23.2811 4.72121C23.3941 4.83406 23.5358 4.91384 23.6909 4.9519C23.846 4.98997 24.0085 4.98486 24.1609 4.93714C24.317 4.88843 24.4795 4.86365 24.643 4.86364C25.0722 4.86364 25.4756 5.03076 25.7792 5.33307C26.0803 5.63566 26.2492 6.04515 26.2491 6.47198C26.249 6.8988 26.0799 7.30823 25.7788 7.6107Z" fill="white"/>
<path d="M4.65146 13.9442C4.44496 14.7938 5.55315 16.5364 7.09534 18.2947C6.47802 18.8223 5.88477 19.2638 5.58771 19.3001C5.54097 19.3058 5.49392 19.3086 5.44684 19.3084C4.93409 19.3084 4.19471 19.0358 3.41115 19.0358C2.80696 19.0358 2.17696 19.1977 1.6034 19.7713C1.21017 20.1641 0.96007 20.6775 0.8931 21.2293C0.826129 21.7811 0.946161 22.3394 1.23399 22.815C1.52183 23.2905 1.96083 23.6557 2.48077 23.8523C3.00071 24.0488 3.57155 24.0653 4.10196 23.8991C3.96648 24.3319 3.95201 24.7935 4.06014 25.2339C4.16826 25.6743 4.39484 26.0768 4.71534 26.3976C4.94589 26.6286 5.21978 26.8118 5.52129 26.9366C5.8228 27.0615 6.146 27.1255 6.47234 27.1252C6.7988 27.1255 7.12212 27.0614 7.42377 26.9366C7.72542 26.8117 7.99946 26.6286 8.23021 26.3976C9.6184 25.0086 8.59421 23.2848 8.70009 22.4125C8.67952 22.0541 9.08071 21.4373 9.59084 20.8055C11.3876 22.4002 13.188 23.5591 14.056 23.3487C14.4256 23.259 15.2451 22.6443 16.2496 21.7698L6.23084 11.7515C5.3554 12.7551 4.74071 13.5741 4.65146 13.9442ZM8.94071 20.2075C8.30327 21.0063 7.8439 21.7798 7.82509 22.3648C7.7914 22.7388 7.86796 23.1238 7.94846 23.5303C8.14009 24.4932 8.21971 25.1705 7.61159 25.779C7.46217 25.9288 7.28458 26.0476 7.08906 26.1285C6.89353 26.2093 6.68393 26.2507 6.47234 26.2502C6.21975 26.2504 5.97065 26.1912 5.74525 26.0772C5.51984 25.9632 5.32447 25.7977 5.17495 25.5941C5.02544 25.3905 4.92599 25.1546 4.88468 24.9054C4.84336 24.6562 4.86134 24.4008 4.93715 24.1598C4.98476 24.0075 4.98975 23.8451 4.95158 23.6901C4.9134 23.5352 4.83351 23.3936 4.72059 23.2809C4.60784 23.1678 4.46625 23.0878 4.31122 23.0495C4.15618 23.0113 3.99362 23.0162 3.84121 23.0639C3.68482 23.1125 3.52197 23.1371 3.35821 23.1369C3.14706 23.1375 2.93787 23.0963 2.74272 23.0156C2.54757 22.935 2.37031 22.8165 2.22115 22.6671C1.91752 22.3621 1.74996 21.9579 1.74996 21.5283C1.74996 21.0986 1.91752 20.6944 2.22202 20.3895C2.55321 20.0583 2.91984 19.9104 3.41071 19.9104C3.75809 19.9104 4.11946 19.9821 4.46859 20.0513C4.80896 20.1186 5.13096 20.183 5.44596 20.183C5.53171 20.183 5.61484 20.1777 5.69315 20.1685C6.12234 20.116 6.79302 19.7008 7.68552 18.9461C8.09099 19.3792 8.50958 19.7999 8.94071 20.2075ZM7.85221 14.5694L8.28971 15.0069L7.85221 15.4444L7.41471 15.0069L7.85221 14.5694ZM6.83109 14.4053L6.39359 14.8424L5.95609 14.4053L6.39359 13.9678L6.83109 14.4053Z" fill="white"/>
<path d="M6.57605 11.3583L16.9172 21.174C18.5198 19.7176 20.4115 17.8031 21.7306 16.2941L10.0787 7.76025C8.86199 8.92137 7.58711 10.2287 6.57605 11.3583ZM9.6333 11.1653L9.1958 10.7278L9.6333 10.2903L10.0708 10.7278L9.6333 11.1653ZM12.6958 13.194L12.2583 13.6315L11.8208 13.194L12.2579 12.7565L12.6958 13.194ZM11.1645 11.8815L11.8208 12.5378L11.1645 13.194L10.5083 12.5378L11.1645 11.8815Z" fill="white"/>
</g>
<defs>
<clipPath id="clip0_1_33">
<rect width="98" height="28" fill="white"/>
</clipPath>
</defs>
</svg>
