<svg width="58" height="58" viewBox="0 0 58 58" fill="none" xmlns="http://www.w3.org/2000/svg">
<path d="M29 4.83325C15.6745 4.83325 4.83334 15.6744 4.83334 28.9999V39.0122C4.83334 41.4868 7.00109 43.4999 9.66667 43.4999H12.0833C12.7243 43.4999 13.339 43.2453 13.7922 42.7921C14.2454 42.3389 14.5 41.7242 14.5 41.0833V28.6543C14.5 28.0134 14.2454 27.3987 13.7922 26.9455C13.339 26.4923 12.7243 26.2377 12.0833 26.2377H9.889C11.2327 16.8852 19.2802 9.66659 29 9.66659C38.7198 9.66659 46.7673 16.8852 48.111 26.2377H45.9167C45.2757 26.2377 44.661 26.4923 44.2078 26.9455C43.7546 27.3987 43.5 28.0134 43.5 28.6543V43.4999C43.5 46.1655 41.3323 48.3333 38.6667 48.3333H33.8333V45.9166H24.1667V53.1666H38.6667C43.9978 53.1666 48.3333 48.8311 48.3333 43.4999C50.9989 43.4999 53.1667 41.4868 53.1667 39.0122V28.9999C53.1667 15.6744 42.3255 4.83325 29 4.83325Z" fill="white"/>
</svg>
